<svg height='100px' width='100px'  fill="#000000" xmlns="http://www.w3.org/2000/svg" xmlns:xlink="http://www.w3.org/1999/xlink" version="1.1" x="0px" y="0px" viewBox="0 0 100 100" style="enable-background:new 0 0 100 100;" xml:space="preserve"><style type="text/css">
	.st0{fill:#000000;}
</style><path class="st0" d="M-78.7-18.5"></path><g><path d="M42.5,35.1c0,0,4.5-1.1,5.3-1.4c0.7-0.3,2.6-0.5,3.1-0.3c0.5,0.2,2.2,0.4,2.2,0.4l6-15.7l-9,9.2l1.7-4L42.5,35.1z"></path><path d="M66.3,47.6c1.3-3,1.4-6.8,1.4-8.4s4.6-19.8,4.6-19.8l-7.7,9.1l0.3-2.2L58,32.2l-4.5,2.9c-1.1-0.5-2.3-0.8-3.5-0.6   c-3.4,0.6-9.3,1.5-10.9,4.3c-1.2,2.1-2.7,5.1-3,7.4l-5.7,4.1c-0.4,0-0.9,0.1-1.3,0.3c-0.6,0.3-1,0.9-1.1,1.4l-0.1,0   c0,0-1,5.1,1,6.9c2.1,1.8,7.3,4.9,8.4,4.7c1.1-0.2,1.9,0.8,1.9,0.8V63l0.9,0.4v-1.5l8-2.9c2.1,0.4,4.6,0,7.3-2   c0.5-0.3,0.9-0.7,1.2-1.1l0,0c0,0,2.6-1.6,5.1-3.6c0,0,3.1-5.1,1-8.5c-2.1-3.4-2.1-3.4-2.1-3.4s5.4,2.7,4.6,8.7   C65.8,48.5,66.1,48,66.3,47.6z M36.5,55.7h-1.3l1-0.6h0.2C36.6,55.1,36.5,55.7,36.5,55.7z M34.2,54.1c-0.6,1.5-0.6,1.5-0.6,1.5   s-0.5-3.6,3.3-3.1l0.4,0.3C37.3,52.9,34.8,52.6,34.2,54.1z"></path><path d="M81.6,51c0,0,0,0-2.5-2.3c-1.3-1.2-2.7-1.6-3.8-1.7c-0.1-0.3-0.2-0.6-0.3-0.9c1.9-2.4,5.8-1.1,5.8-1.1s0,0-3.2-1.3   c-1.6-0.7-3.2-0.6-4.2-0.3c-0.2-0.2-0.4-0.4-0.6-0.6c1.6-3.8,6.8-3,6.8-3s0,0-4-0.9c-4-0.9-6.9,1.6-6.9,1.6s0,0.2,0.1,0.7   c0.4,0.2,0.9,0.5,1.5,0.9l1.8,1.8l0.2,0.2c0.5,0.7,1,1.6,1.3,2.6c0,0.1,0.1,0.2,0.1,0.4c0.1,0.6,0.2,1.2,0.3,1.9   c0,0.6,0,1.2-0.1,1.9c-0.1,0.6-0.2,1.2-0.3,1.8c-0.3,1.2-0.7,2.5-1.4,3.9c-0.4,0.8-0.8,1.7-1.3,2.7c-0.2,0.3-0.4,0.7-0.6,1   c-0.6,1-1.2,2-2,3.1c-0.6,0.8-1.2,1.6-1.8,2.5c-0.6,0.8-1.3,1.6-2,2.4c-0.2,0.3-0.5,0.5-0.7,0.8c-0.5,0.6-1,1.1-1.5,1.7   c-0.1,0.1-0.2,0.3-0.4,0.4c-0.4,0.4-0.7,0.8-1.1,1.2c-0.5,0.6-1.1,1.2-1.7,1.7c-0.3,0.3-0.6,0.6-0.8,0.9c-0.5,0.5-1,1-1.5,1.5   c-0.2,0.2-0.4,0.4-0.7,0.7c-0.1-0.1-0.1-0.2-0.2-0.4c0.3-0.3,0.5-0.6,0.8-0.9c0.4-0.4,0.8-0.9,1.2-1.4c0.3-0.4,0.7-0.8,1-1.2   c0.4-0.5,0.8-0.9,1.2-1.4c0.4-0.5,0.9-1.1,1.3-1.6c0,0,0,0,0,0l0.1-0.1c0.5-0.6,0.9-1.2,1.4-1.8c0.5-0.7,1.1-1.4,1.6-2.2   c0.2-0.3,0.4-0.5,0.5-0.8c5.9-8.4,10.6-18.5,3.7-22.7c-0.2,3.4-2,10.5-11.9,17.2c-13.7,9.3-24.1,5.3-24.1,5.3s-5.8-2.4-6.8-3.6   s-1-1.2-1-1.2s-2.8,7.4,0,15.1c0.3,0.9,0.6,1.6,0.9,2.3c1.8,4.8,6.3,8,11.4,8c4.9,0,11.6-1.6,19.1-7.5c0.1,0.6,0.1,1,0.1,1   s0,0,0.1-1.2c0.7-0.6,1.4-1.2,2.1-1.8c0.1,0.6,0.1,1.1,0.1,1.1s0,0,0.1-1.4c0.8-0.8,1.7-1.6,2.5-2.4c0.3,0.9,0.3,1.8,0.3,1.8   s0,0,0.2-2.3c0.5-0.6,1.1-1.1,1.6-1.8c1.1,0.9,1.5,2.6,1.5,2.6s0,0-0.3-2.5c-0.1-0.4-0.2-0.8-0.3-1.1c0.4-0.4,0.7-0.8,1.1-1.2   c0.1-0.1,0.2-0.2,0.3-0.3c3-0.6,5.2,2.7,5.2,2.7s0,0-1.7-3c-0.5-0.9-1.1-1.5-1.7-2c0.8-1,1.5-2,2.1-2.9c3,0.2,4.2,3.9,4.2,3.9   s0,0-0.9-3.3c-0.4-1.3-1.1-2.3-1.8-3c0.3-0.4,0.5-0.9,0.8-1.3c3-0.7,5.3,2.7,5.3,2.7s0,0-1.7-3c-0.6-1.1-1.4-1.9-2.2-2.4   c0.4-1,0.8-1.9,1.1-2.7c3.1-0.9,5.5,2.7,5.5,2.7s0,0-1.7-3c-0.8-1.5-2-2.4-3-2.8c0.1-0.4,0.1-0.7,0.1-1.1   C78.3,48.4,81.6,51,81.6,51z M56.6,74.9c0,0.1,0,0.1,0.1,0.2C56.6,75,56.6,74.9,56.6,74.9z M56.1,73.8   C56.1,73.8,56.1,73.9,56.1,73.8C56.1,73.9,56.1,73.8,56.1,73.8z M56.3,74.3c0,0.1,0.1,0.1,0.1,0.2C56.4,74.4,56.4,74.3,56.3,74.3z"></path><path d="M83,23.8c0-0.1,0.1-0.1,0.1-0.2c-0.2-0.2-0.5-0.5-0.7-0.7c-0.8-0.9-1.4-1.3-1.4-1.3h0c-7.2-6.3-16.5-10.1-26.8-10.1   c-22.5,0-40.8,18.2-40.8,40.8c0,11.4,4.7,21.7,12.2,29.1c-2.5-5-5.8-16.1-0.8-24.1L25,57l0.8-5.8l0.3-2.1l2.3-1.6H30l3.3-2.2   c1.3-4.7,6.4-10.4,6.4-10.4l13.2-15.8V22l5.8-5.8l2.5-0.8l0.9,2.2l-4.7,12.3l8.7-9.1v3.4l7.3-7.7l0.5,1.5l-4.2,19.6l0.1-0.1   c0,0,6.4-5.2,10.7-10.5c2.4,1.5,4,5.8,4,5.8C85.2,28.4,84.1,25.5,83,23.8z"></path></g></svg>